# xmcd
#
# Track frame offsets: 
#        150
#        14257
#        27931
#        39696
#        51010
#        61860
#        71919
#        82361
#        93956
#        107445
#        122197
#        134059
#        146159
#        161371
#        174593
#        189990
#        197042
#        204489
#        214386
#        223718
#        237750
#        248322
#        261521
#        270443
#        284038
#        298240
#        313159
#
# Disc length: 4350 seconds
#
# Revision: 0
# Processed by: cddbd v1.5.1PL0 Copyright (c) Steve Scherf et al.
# Submitted via: ExactAudioCopy v0.95a4
#
DISCID=aa10fc1b
DTITLE=Tex Ritter - High Noon - Disc 3
DYEAR=1900
DGENRE=Country
TTITLE0=Deck Of Cards
TTITLE1=A Beautiful Life
TTITLE2=Hide Me Rock Of Ages
TTITLE3=Thief On The Cross
TTITLE4=Give The World A Smile
TTITLE5=Onward Christian Soldiers
TTITLE6=There Shall Be Showers Of Blessings
TTITLE7=Lord, Send An Angel
TTITLE8=The Touch Of The Master's Hand
TTITLE9=The Pledge Of Allegiance
TTITLE10=The Gettysburg Address
TTITLE11=The Fiery Bear
TTITLE12=Daddy's Last Letter (A Letter From Korea)
TTITLE13=The Great American Eagle
TTITLE14=The Red Deck Of Cards
TTITLE15=Jesus Loves Me
TTITLE16=I'll Be A Sunbeam
TTITLE17=Two Little Hands - Jesus Loves The Little Children
TTITLE18=Little Feet Be Careful - Away In A Manger
TTITLE19=Jesus Loves Me
TTITLE20=Merry Christmas Polka
TTITLE21=Is There A Santa Claus
TTITLE22=Old Tex Kringle
TTITLE23=Skybird (Part 1)
TTITLE24=Skybird (Part 2)
TTITLE25=Skybird (Part 3)
TTITLE26=Skybird (Part 4)
EXTD=
EXTT0=
EXTT1=
EXTT2=
EXTT3=
EXTT4=
EXTT5=
EXTT6=
EXTT7=
EXTT8=
EXTT9=
EXTT10=
EXTT11=
EXTT12=
EXTT13=
EXTT14=
EXTT15=
EXTT16=
EXTT17=
EXTT18=
EXTT19=
EXTT20=
EXTT21=
EXTT22=
EXTT23=
EXTT24=
EXTT25=
EXTT26=
PLAYORDER=
